<svg width="18" height="16" viewBox="0 0 18 16" fill="none" xmlns="http://www.w3.org/2000/svg">
<path fill-rule="evenodd" clip-rule="evenodd" d="M7.47923 5.19315V3.4151C6.79541 3.42525 6.14438 3.48082 5.79469 3.60437C3.41952 4.4436 2.03784 6.07178 2.03784 7.73191C2.03784 9.13927 3.01863 10.5136 4.78249 11.4238L4.0696 12.8053C1.9935 11.734 0.483215 9.92011 0.483215 7.73191C0.483215 5.14331 2.57988 3.09146 5.27678 2.13856C5.88577 1.92338 6.7731 1.86927 7.47923 1.86024V0.808452C7.47923 0.44043 7.88553 0.217398 8.19601 0.41498L11.3012 2.39098C11.5245 2.5331 11.5435 2.85204 11.3386 3.01967L8.24095 5.55411C7.93644 5.80326 7.47923 5.5866 7.47923 5.19315ZM16.0294 7.73191C16.0294 6.22809 14.9044 4.75706 12.913 3.86071L13.5511 2.44308C15.8603 3.48247 17.5841 5.39071 17.5841 7.73191C17.5841 10.2094 15.659 12.1982 13.1376 13.1954C12.2595 13.5427 11.3651 13.5617 10.5883 13.5617H10.5882L10.1998 13.5617V14.6537C10.1998 15.0218 9.79349 15.2448 9.483 15.0472L6.37787 13.0712C6.15453 12.9291 6.13553 12.6101 6.34042 12.4425L9.43806 9.90808C9.74258 9.65893 10.1998 9.87558 10.1998 10.269V12.0071L10.5883 12.0071H10.5883C11.366 12.0071 11.9908 11.9771 12.5659 11.7497C14.7666 10.8793 16.0294 9.32182 16.0294 7.73191Z" fill="white"/>
</svg>
