c<svg width="10" height="10" viewBox="0 0 10 10" fill="none" xmlns="http://www.w3.org/2000/svg">
<path fill-rule="evenodd" clip-rule="evenodd" d="M8.71137 0.66117C8.29456 0.244359 7.61878 0.24436 7.20196 0.66117L4.68631 3.17682L2.17063 0.661135C1.75382 0.244325 1.07803 0.244324 0.661224 0.661135C0.244413 1.07795 0.244413 1.75373 0.661224 2.17054L3.17691 4.68623L0.661211 7.20192C0.2444 7.61873 0.2444 8.29452 0.661211 8.71133C1.07802 9.12814 1.75381 9.12814 2.17062 8.71133L4.68631 6.19563L7.20198 8.71129C7.61879 9.12811 8.29457 9.12811 8.71138 8.71129C9.12819 8.29448 9.12819 7.6187 8.71138 7.20189L6.19572 4.68623L8.71137 2.17057C9.12818 1.75376 9.12818 1.07798 8.71137 0.66117Z" fill="#343434"/>
</svg>
