<svg width="15" height="13" viewBox="0 0 15 13" fill="none" xmlns="http://www.w3.org/2000/svg">
<path d="M14.837 4.86286L9.52704 4.72125L7.82783 6.91604L14.837 4.86286Z" fill="url(#paint0_linear_1_406)"/>
<path d="M7.82783 6.98689L9.52705 4.72128L7.75705 0.544067V6.91607L7.82783 6.98689Z" fill="url(#paint1_linear_1_406)"/>
<path d="M7.75705 6.91608V6.9869L12.1466 12.4385L10.8014 7.83647L7.75705 6.91608Z" fill="url(#paint2_linear_1_406)"/>
<path d="M7.75705 6.98688V9.88966L12.1466 12.4384L7.75705 6.98688Z" fill="url(#paint3_linear_1_406)"/>
<path d="M3.43824 12.4384L7.75704 9.88966V6.98688L3.43824 12.4384Z" fill="url(#paint4_linear_1_406)"/>
<path d="M7.82783 6.91603L10.8014 7.83642L14.9078 4.86285H14.837L7.75705 6.91603H7.82783Z" fill="url(#paint5_linear_1_406)"/>
<path d="M7.82783 6.91608H7.75704L4.78344 7.83647L3.43824 12.4385L7.75704 6.9869L7.82783 6.91608Z" fill="url(#paint6_linear_1_406)"/>
<path d="M7.75705 6.91607V0.544067L5.98705 4.72128L7.75705 6.91607Z" fill="url(#paint7_linear_1_406)"/>
<path d="M5.98705 4.72125L0.677048 4.86286L7.75705 6.91604L5.98705 4.72125Z" fill="url(#paint8_linear_1_406)"/>
<path d="M7.75705 6.91603L0.677048 4.86285L4.78344 7.83642L7.75705 6.91603Z" fill="url(#paint9_linear_1_406)"/>
<path d="M14.9078 4.86285C14.6246 4.93365 14.3414 5.07523 13.9874 5.14603C13.8458 5.21683 13.7042 5.21684 13.5626 5.28764C13.421 5.35844 13.2794 5.35845 13.1378 5.42925L12.713 5.57085L12.2882 5.71242C12.005 5.78322 11.7218 5.85404 11.3678 5.99564C10.8014 6.13724 10.1642 6.34965 9.59783 6.49125C9.03143 6.63285 8.39423 6.84525 7.82783 6.98685C8.39423 6.77445 9.03143 6.63282 9.59783 6.42042C10.1642 6.20802 10.8014 6.06643 11.3678 5.85403C11.651 5.78323 11.9342 5.71245 12.2882 5.57085L12.713 5.42925L13.1378 5.28764C13.2794 5.21684 13.421 5.21683 13.5626 5.14603C13.7042 5.07523 13.8458 5.07522 13.9874 5.00442C14.3414 5.00442 14.6246 4.93365 14.9078 4.86285Z" fill="url(#paint10_linear_1_406)"/>
<path d="M7.75705 6.91606C7.75705 6.63286 7.75705 6.34967 7.75705 6.13727C7.75705 5.99567 7.75705 5.85405 7.75705 5.71245C7.75705 5.57085 7.75705 5.42927 7.75705 5.28766V4.86288V4.43806C7.75705 4.29646 7.75705 4.15487 7.75705 4.01327V3.58845C7.75705 3.02205 7.75705 2.52646 7.75705 1.96006C7.75705 1.39366 7.75703 0.898065 7.82783 0.331665C7.82783 0.898065 7.82783 1.39366 7.82783 1.96006C7.82783 2.52646 7.82783 3.02205 7.82783 3.58845V4.01327C7.82783 4.15487 7.82783 4.29646 7.82783 4.43806V4.86288V5.28766C7.82783 5.42927 7.82783 5.57085 7.82783 5.71245C7.82783 5.85405 7.82783 5.99567 7.82783 6.13727C7.82783 6.42047 7.82785 6.70366 7.75705 6.91606Z" fill="url(#paint11_linear_1_406)"/>
<path d="M7.75705 6.98686L7.54463 6.91603L7.33224 6.84525L6.90744 6.70364L6.48264 6.56203L6.05783 6.42043L5.13744 6.13725C4.85424 6.06645 4.57105 5.99564 4.21705 5.85404C3.65065 5.71244 3.01345 5.50004 2.44705 5.28764C1.88065 5.07524 1.24345 4.93365 0.677048 4.72125C1.24345 4.86285 1.88065 5.07526 2.44705 5.21686C3.01345 5.35846 3.65065 5.57083 4.21705 5.71243C4.50025 5.78323 4.78344 5.85404 5.13744 5.99564L6.05783 6.27886L6.48264 6.42043L6.90744 6.56203L7.33224 6.70364L7.54463 6.77443L7.75705 6.98686Z" fill="url(#paint12_linear_1_406)"/>
<path d="M7.82783 6.98688L7.68624 7.12844L7.54463 7.27005L7.26144 7.62405L6.97824 7.97805L6.69505 8.33205C6.34105 8.75685 5.98705 9.25247 5.63305 9.67727L5.06664 10.3853L4.78344 10.7393L4.50024 11.0933L3.93383 11.8013C3.72143 12.0137 3.57984 12.226 3.36744 12.4384C3.50904 12.226 3.72145 11.9428 3.86305 11.7304L4.42944 11.0224L4.71263 10.6684L4.99583 10.3144L5.56224 9.60644C5.91624 9.18164 6.27024 8.68607 6.62424 8.26127L6.90744 7.90727L7.19063 7.55327L7.47383 7.19927L7.61544 7.05766L7.82783 6.98688Z" fill="url(#paint13_linear_1_406)"/>
<path d="M12.1466 12.4384C11.7926 12.0136 11.4386 11.5181 11.0846 11.0933L10.5182 10.3853L9.95183 9.67728L9.38544 8.96928L8.81905 8.26128C8.60665 8.04888 8.46503 7.83648 8.25263 7.55328C8.46503 7.76568 8.60665 7.97808 8.81905 8.26128L9.38544 8.96928L9.95183 9.67728L10.5182 10.3853L11.0846 11.0933C11.4386 11.5181 11.7926 11.9429 12.1466 12.4384Z" fill="url(#paint14_linear_1_406)"/>
<defs>
<linearGradient id="paint0_linear_1_406" x1="11.3331" y1="6.90874" x2="11.3082" y2="4.15932" gradientUnits="userSpaceOnUse">
<stop stop-color="#F85314"/>
<stop offset="0.3198" stop-color="#FF6131"/>
<stop offset="0.6802" stop-color="#FA8C39"/>
<stop offset="1" stop-color="#FF9A55"/>
</linearGradient>
<linearGradient id="paint1_linear_1_406" x1="9.44988" y1="5.54235" x2="6.96514" y2="2.88006" gradientUnits="userSpaceOnUse">
<stop stop-color="#FF9A55"/>
<stop offset="0.3198" stop-color="#FA8C39"/>
<stop offset="0.6802" stop-color="#FF6131"/>
<stop offset="1" stop-color="#D79617"/>
</linearGradient>
<linearGradient id="paint2_linear_1_406" x1="8.67058" y1="6.36164" x2="10.9207" y2="10.1214" gradientUnits="userSpaceOnUse">
<stop stop-color="#F85314"/>
<stop offset="0.3198" stop-color="#FF6131"/>
<stop offset="0.6802" stop-color="#FA8C39"/>
<stop offset="1" stop-color="#FF9A55"/>
</linearGradient>
<linearGradient id="paint3_linear_1_406" x1="6.80925" y1="7.47738" x2="11.071" y2="11.6337" gradientUnits="userSpaceOnUse">
<stop stop-color="#FF9A55"/>
<stop offset="0.3198" stop-color="#FA8C39"/>
<stop offset="0.6802" stop-color="#FF6131"/>
<stop offset="1" stop-color="#D79617"/>
</linearGradient>
<linearGradient id="paint4_linear_1_406" x1="8.07841" y1="9.80951" x2="2.89202" y2="9.56405" gradientUnits="userSpaceOnUse">
<stop stop-color="#FF9A55"/>
<stop offset="0.3198" stop-color="#FA8C39"/>
<stop offset="0.6802" stop-color="#FF6131"/>
<stop offset="1" stop-color="#D79617"/>
</linearGradient>
<linearGradient id="paint5_linear_1_406" x1="7.8624" y1="7.321" x2="13.7258" y2="6.15039" gradientUnits="userSpaceOnUse">
<stop stop-color="#FF9A55"/>
<stop offset="0.3198" stop-color="#FA8C39"/>
<stop offset="0.6802" stop-color="#FF6131"/>
<stop offset="1" stop-color="#D79617"/>
</linearGradient>
<linearGradient id="paint6_linear_1_406" x1="8.27408" y1="9.08638" x2="4.7828" y2="9.86432" gradientUnits="userSpaceOnUse">
<stop stop-color="#FF9A55"/>
<stop offset="0.3198" stop-color="#FA8C39"/>
<stop offset="0.6802" stop-color="#FF6131"/>
<stop offset="1" stop-color="#D79617"/>
</linearGradient>
<linearGradient id="paint7_linear_1_406" x1="7.67067" y1="7.17484" x2="6.85767" y2="2.40391" gradientUnits="userSpaceOnUse">
<stop stop-color="#F85314"/>
<stop offset="0.3198" stop-color="#FF6131"/>
<stop offset="0.6802" stop-color="#FA8C39"/>
<stop offset="1" stop-color="#FF9A55"/>
</linearGradient>
<linearGradient id="paint8_linear_1_406" x1="7.27235" y1="5.87358" x2="-1.05798" y2="4.8639" gradientUnits="userSpaceOnUse">
<stop stop-color="#FF9A55"/>
<stop offset="0.3198" stop-color="#FA8C39"/>
<stop offset="0.6802" stop-color="#FF6131"/>
<stop offset="1" stop-color="#D79617"/>
</linearGradient>
<linearGradient id="paint9_linear_1_406" x1="0.658003" y1="6.33541" x2="7.77213" y2="6.33541" gradientUnits="userSpaceOnUse">
<stop stop-color="#F85314"/>
<stop offset="0.3198" stop-color="#FF6131"/>
<stop offset="0.6802" stop-color="#FA8C39"/>
<stop offset="1" stop-color="#FF9A55"/>
</linearGradient>
<linearGradient id="paint10_linear_1_406" x1="14.9644" y1="5.08821" x2="7.71412" y2="6.7038" gradientUnits="userSpaceOnUse">
<stop stop-color="#FCCF5A"/>
<stop offset="0.5754" stop-color="#FFFD8C"/>
<stop offset="1" stop-color="#A65005"/>
</linearGradient>
<linearGradient id="paint11_linear_1_406" x1="8.51527" y1="3.58853" x2="7.04246" y2="3.91661" gradientUnits="userSpaceOnUse">
<stop stop-color="#C98013"/>
<stop offset="0.5754" stop-color="#FFFD8C"/>
<stop offset="1" stop-color="#F85314"/>
</linearGradient>
<linearGradient id="paint12_linear_1_406" x1="7.42485" y1="5.19441" x2="1.02765" y2="6.61989" gradientUnits="userSpaceOnUse">
<stop stop-color="#C98013"/>
<stop offset="0.5754" stop-color="#FFFD8C"/>
<stop offset="1" stop-color="#A65005"/>
</linearGradient>
<linearGradient id="paint13_linear_1_406" x1="8.29943" y1="9.08651" x2="2.94179" y2="10.2803" gradientUnits="userSpaceOnUse">
<stop stop-color="#C98013"/>
<stop offset="0.5754" stop-color="#FFFD8C"/>
<stop offset="1" stop-color="#C98013"/>
</linearGradient>
<linearGradient id="paint14_linear_1_406" x1="11.4552" y1="9.34415" x2="8.43488" y2="10.0172" gradientUnits="userSpaceOnUse">
<stop stop-color="#C98013"/>
<stop offset="0.5754" stop-color="#FFFD8C"/>
<stop offset="1" stop-color="#C98013"/>
</linearGradient>
</defs>
</svg>
