<svg width="22" height="20" viewBox="0 0 22 20" fill="none" xmlns="http://www.w3.org/2000/svg">
<path fill-rule="evenodd" clip-rule="evenodd" d="M9.96994 0.445893C10.3318 0.156921 10.7772 3.05176e-05 11.2356 3.05176e-05C11.6941 3.05176e-05 12.1395 0.156921 12.5013 0.445893L21.1427 7.34458C21.9188 7.96567 21.49 9.24066 20.5088 9.24066H19.4812V17.7053C19.4812 18.2665 19.264 18.8048 18.8774 19.2016C18.4908 19.5985 17.9665 19.8215 17.4198 19.8215H5.05147C4.50476 19.8215 3.98043 19.5985 3.59385 19.2016C3.20726 18.8048 2.99008 18.2665 2.99008 17.7053V9.24066H1.96248C0.980231 9.24066 0.553523 7.96461 1.3286 7.34563L9.96994 0.445893Z" fill="#FEDB35"/>
</svg>
