<svg width="27" height="23" viewBox="0 0 27 23" fill="none" xmlns="http://www.w3.org/2000/svg">
<path d="M24.7625 5.05448H25.159V4.65806V3.36966C25.159 2.58112 24.8457 1.82487 24.2881 1.26728C23.7306 0.709697 22.9743 0.396449 22.1858 0.396449H4.14826C3.35971 0.396449 2.60346 0.709697 2.04588 1.26728C1.48829 1.82487 1.17504 2.58112 1.17504 3.36966V18.8304C1.17504 19.6189 1.48829 20.3752 2.04588 20.9328C2.60346 21.4903 3.35971 21.8036 4.14826 21.8036H22.1858C22.9743 21.8036 23.7306 21.4903 24.2881 20.9328C24.8457 20.3752 25.159 19.6189 25.159 18.8304V17.542V17.1456H24.7625H17.0322C15.4288 17.1456 13.8911 16.5086 12.7573 15.3749C11.6236 14.2411 10.9867 12.7034 10.9867 11.1C10.9867 9.49664 11.6236 7.95894 12.7573 6.82518C13.8911 5.69142 15.4288 5.05448 17.0322 5.05448H24.7625ZM25.5765 7.70925C25.0189 7.15166 24.2627 6.83841 23.4741 6.83841H17.0322C15.9019 6.83841 14.818 7.2874 14.0188 8.08661C13.2196 8.88581 12.7706 9.96977 12.7706 11.1C12.7706 12.2303 13.2196 13.3142 14.0188 14.1134C14.818 14.9126 15.9019 15.3616 17.0322 15.3616H23.4741C24.2627 15.3616 25.0189 15.0484 25.5765 14.4908C26.1341 13.9332 26.4474 13.177 26.4474 12.3884V9.81163C26.4474 9.02308 26.1341 8.26683 25.5765 7.70925ZM16.4015 10.4693C16.5687 10.302 16.7956 10.2081 17.0322 10.2081C17.2688 10.2081 17.4956 10.302 17.6629 10.4693C17.8302 10.6366 17.9242 10.8635 17.9242 11.1C17.9242 11.3366 17.8302 11.5635 17.6629 11.7307C17.4956 11.898 17.2688 11.992 17.0322 11.992C16.7956 11.992 16.5687 11.898 16.4015 11.7307C16.2342 11.5635 16.1402 11.3366 16.1402 11.1C16.1402 10.8635 16.2342 10.6366 16.4015 10.4693Z" stroke="white" stroke-width="0.792857"/>
</svg>
