<svg width="27" height="22" viewBox="0 0 27 22" fill="none" xmlns="http://www.w3.org/2000/svg">
<path d="M26.2867 6.19186V18.9531C26.2867 19.6039 26.0282 20.2282 25.568 20.6884C25.1078 21.1486 24.4835 21.4072 23.8327 21.4072M23.8327 21.4072C23.1818 21.4072 22.5575 21.1486 22.0973 20.6884C21.6371 20.2282 21.3786 19.6039 21.3786 18.9531V1.77451C21.3786 1.51416 21.2751 1.26447 21.0911 1.0804C20.907 0.896302 20.6573 0.792877 20.3969 0.792877H1.74591C1.48557 0.792877 1.23589 0.896302 1.0518 1.0804C0.867703 1.26447 0.764282 1.51416 0.764282 1.77451V19.4439C0.764282 19.9646 0.971126 20.464 1.33931 20.8321C1.70749 21.2002 2.20685 21.4072 2.72755 21.4072H23.8327Z" stroke="white" stroke-width="0.792857" stroke-linecap="round" stroke-linejoin="round"/>
<path d="M15.4888 5.70105H6.65411V10.6092H15.4888V5.70105Z" stroke="white" stroke-width="0.792857" stroke-linecap="round" stroke-linejoin="round"/>
<path d="M6.65411 16.499H15.4888" stroke="white" stroke-width="0.792857" stroke-linecap="round" stroke-linejoin="round"/>
</svg>
