<svg width="24" height="24" viewBox="0 0 24 24" fill="none" xmlns="http://www.w3.org/2000/svg">
<path d="M12.0393 14.2364V13.9815C12.0577 13.5751 12.1715 13.1787 12.3716 12.8245C12.5718 12.4702 12.8526 12.1682 13.1913 11.9427C13.4672 11.7509 13.6888 11.4909 13.8345 11.1881C13.9802 10.8852 14.045 10.5498 14.0226 10.2144C14.0002 9.87911 13.8915 9.55528 13.7068 9.27446C13.5222 8.99363 13.2681 8.76537 12.9691 8.61189C12.6701 8.45841 12.3365 8.38494 12.0007 8.39862C11.6649 8.41229 11.3383 8.51266 11.0528 8.68995C10.7673 8.86723 10.5325 9.11541 10.3714 9.41032C10.2102 9.70523 10.1281 10.0368 10.1331 10.3729" stroke="white" stroke-width="1.63102" stroke-miterlimit="10"/>
<path d="M12.0393 15.2047V17.1517" stroke="white" stroke-width="1.63102" stroke-miterlimit="10"/>
<path d="M5.2298 12.2893C5.2298 14.0953 5.94723 15.8273 7.22426 17.1044C8.50129 18.3814 10.2333 19.0988 12.0393 19.0988C13.8453 19.0988 15.5773 18.3814 16.8544 17.1044C18.1314 15.8273 18.8488 14.0953 18.8488 12.2893C18.8488 10.4833 18.1314 8.75129 16.8544 7.47426C15.5773 6.19723 13.8453 5.4798 12.0393 5.4798C10.2333 5.4798 8.50129 6.19723 7.22426 7.47426C5.94723 8.75129 5.2298 10.4833 5.2298 12.2893Z" stroke="white" stroke-width="1.63102" stroke-miterlimit="10"/>
<path d="M1.33575 1.58575H22.7429V22.9929H1.33575V1.58575Z" stroke="white" stroke-width="1.63102" stroke-miterlimit="10"/>
</svg>
