<svg width="27" height="22" viewBox="0 0 27 22" fill="none" xmlns="http://www.w3.org/2000/svg">
<path d="M26.2867 6.19195V18.9532C26.2867 19.604 26.0282 20.2283 25.568 20.6885C25.1078 21.1487 24.4835 21.4073 23.8327 21.4073C23.1818 21.4073 22.5575 21.1487 22.0973 20.6885C21.6371 20.2283 21.3786 19.604 21.3786 18.9532V1.7746C21.3786 1.51425 21.2751 1.26456 21.0911 1.08049C20.907 0.896394 20.6573 0.792969 20.3969 0.792969H1.74591C1.48557 0.792969 1.23589 0.896394 1.0518 1.08049C0.867703 1.26456 0.764282 1.51425 0.764282 1.7746V19.444C0.764282 19.9646 0.971126 20.4641 1.33931 20.8322C1.70749 21.2003 2.20685 21.4073 2.72755 21.4073H23.8327" fill="#FEDB35"/>
<path d="M26.2867 6.19195V18.9532C26.2867 19.604 26.0282 20.2283 25.568 20.6885C25.1078 21.1487 24.4835 21.4073 23.8327 21.4073M23.8327 21.4073C23.1818 21.4073 22.5575 21.1487 22.0973 20.6885C21.6371 20.2283 21.3786 19.604 21.3786 18.9532V1.7746C21.3786 1.51425 21.2751 1.26456 21.0911 1.08049C20.907 0.896394 20.6573 0.792969 20.3969 0.792969H1.74591C1.48557 0.792969 1.23589 0.896394 1.0518 1.08049C0.867703 1.26456 0.764282 1.51425 0.764282 1.7746V19.444C0.764282 19.9646 0.971126 20.4641 1.33931 20.8322C1.70749 21.2003 2.20685 21.4073 2.72755 21.4073H23.8327Z" stroke="#181818" stroke-width="0.792857" stroke-linecap="round" stroke-linejoin="round"/>
<path d="M15.4888 5.70117H6.65411V10.6093H15.4888V5.70117Z" fill="#FEDB35" stroke="#181818" stroke-width="0.792857" stroke-linecap="round" stroke-linejoin="round"/>
<path d="M6.65411 16.499H15.4888H6.65411Z" fill="#FEDB35"/>
<path d="M6.65411 16.499H15.4888" stroke="#181818" stroke-width="0.792857" stroke-linecap="round" stroke-linejoin="round"/>
</svg>
